<?xml version='1.0' encoding='utf-8'?>
<svg xmlns="http://www.w3.org/2000/svg" width="1366" zoomAndPan="magnify" viewBox="0 0 1024.5 576" height="768" preserveAspectRatio="xMidYMid meet" version="1.0"><defs><clipPath id="90631f3033"><path d="M 0 0.140625 L 1024 0.140625 L 1024 575.859375 L 0 575.859375 Z M 0 0.140625 " clip-rule="nonzero" /></clipPath><clipPath id="70478082bb"><path d="M 0 0.140625 L 1024 0.140625 L 1024 461.914062 L 0 461.914062 Z M 0 0.140625 " clip-rule="nonzero" /></clipPath><clipPath id="119c185dcd"><path d="M 127 90 L 177 90 L 177 177 L 127 177 Z M 127 90 " clip-rule="nonzero" /></clipPath><clipPath id="2b46dd9f32"><path d="M 57.574219 111.8125 L 166.3125 83.175781 L 192.847656 183.941406 L 84.109375 212.574219 Z M 57.574219 111.8125 " clip-rule="nonzero" /></clipPath><clipPath id="39b55f23cb"><path d="M 57.574219 111.8125 L 166.3125 83.175781 L 192.847656 183.941406 L 84.109375 212.574219 Z M 57.574219 111.8125 " clip-rule="nonzero" /></clipPath><clipPath id="a381ffc346"><path d="M 57.574219 111.8125 L 166.3125 83.175781 L 192.847656 183.941406 L 84.109375 212.574219 Z M 57.574219 111.8125 " clip-rule="nonzero" /></clipPath><clipPath id="803810dc6f"><path d="M 131 99 L 171 99 L 171 172 L 131 172 Z M 131 99 " clip-rule="nonzero" /></clipPath><clipPath id="7fa10088ec"><path d="M 57.574219 111.8125 L 166.3125 83.175781 L 192.847656 183.941406 L 84.109375 212.574219 Z M 57.574219 111.8125 " clip-rule="nonzero" /></clipPath><clipPath id="c0d0101219"><path d="M 57.574219 111.8125 L 166.3125 83.175781 L 192.847656 183.941406 L 84.109375 212.574219 Z M 57.574219 111.8125 " clip-rule="nonzero" /></clipPath><clipPath id="85e7d0245f"><path d="M 57.574219 111.8125 L 166.3125 83.175781 L 192.847656 183.941406 L 84.109375 212.574219 Z M 57.574219 111.8125 " clip-rule="nonzero" /></clipPath><clipPath id="800a2e8c48"><path d="M 141 106 L 144 106 L 144 122 L 141 122 Z M 141 106 " clip-rule="nonzero" /></clipPath><clipPath id="e6222e0d4d"><path d="M 57.574219 111.8125 L 166.3125 83.175781 L 192.847656 183.941406 L 84.109375 212.574219 Z M 57.574219 111.8125 " clip-rule="nonzero" /></clipPath><clipPath id="670c21ddc3"><path d="M 57.574219 111.8125 L 166.3125 83.175781 L 192.847656 183.941406 L 84.109375 212.574219 Z M 57.574219 111.8125 " clip-rule="nonzero" /></clipPath><clipPath id="d0ac78adda"><path d="M 57.574219 111.8125 L 166.3125 83.175781 L 192.847656 183.941406 L 84.109375 212.574219 Z M 57.574219 111.8125 " clip-rule="nonzero" /></clipPath><clipPath id="1840ec2794"><path d="M 143 111 L 146 111 L 146 117 L 143 117 Z M 143 111 " clip-rule="nonzero" /></clipPath><clipPath id="8a7baa84c3"><path d="M 57.574219 111.8125 L 166.3125 83.175781 L 192.847656 183.941406 L 84.109375 212.574219 Z M 57.574219 111.8125 " clip-rule="nonzero" /></clipPath><clipPath id="640424c2de"><path d="M 57.574219 111.8125 L 166.3125 83.175781 L 192.847656 183.941406 L 84.109375 212.574219 Z M 57.574219 111.8125 " clip-rule="nonzero" /></clipPath><clipPath id="3cba9b9948"><path d="M 57.574219 111.8125 L 166.3125 83.175781 L 192.847656 183.941406 L 84.109375 212.574219 Z M 57.574219 111.8125 " clip-rule="nonzero" /></clipPath><clipPath id="f1189073e1"><path d="M 141 113 L 149 113 L 149 131 L 141 131 Z M 141 113 " clip-rule="nonzero" /></clipPath><clipPath id="1fe9ecfefc"><path d="M 57.574219 111.8125 L 166.3125 83.175781 L 192.847656 183.941406 L 84.109375 212.574219 Z M 57.574219 111.8125 " clip-rule="nonzero" /></clipPath><clipPath id="19ba9dc5bb"><path d="M 57.574219 111.8125 L 166.3125 83.175781 L 192.847656 183.941406 L 84.109375 212.574219 Z M 57.574219 111.8125 " clip-rule="nonzero" /></clipPath><clipPath id="af675339a0"><path d="M 57.574219 111.8125 L 166.3125 83.175781 L 192.847656 183.941406 L 84.109375 212.574219 Z M 57.574219 111.8125 " clip-rule="nonzero" /></clipPath><clipPath id="d9e2fdb726"><path d="M 135 120 L 158 120 L 158 142 L 135 142 Z M 135 120 " clip-rule="nonzero" /></clipPath><clipPath id="b37e541b37"><path d="M 57.574219 111.8125 L 166.3125 83.175781 L 192.847656 183.941406 L 84.109375 212.574219 Z M 57.574219 111.8125 " clip-rule="nonzero" /></clipPath><clipPath id="cd662a4f21"><path d="M 57.574219 111.8125 L 166.3125 83.175781 L 192.847656 183.941406 L 84.109375 212.574219 Z M 57.574219 111.8125 " clip-rule="nonzero" /></clipPath><clipPath id="386c38e828"><path d="M 57.574219 111.8125 L 166.3125 83.175781 L 192.847656 183.941406 L 84.109375 212.574219 Z M 57.574219 111.8125 " clip-rule="nonzero" /></clipPath><clipPath id="0f1e45887b"><path d="M 148 128 L 160 128 L 160 149 L 148 149 Z M 148 128 " clip-rule="nonzero" /></clipPath><clipPath id="fb09de4c5e"><path d="M 57.574219 111.8125 L 166.3125 83.175781 L 192.847656 183.941406 L 84.109375 212.574219 Z M 57.574219 111.8125 " clip-rule="nonzero" /></clipPath><clipPath id="cbb8e86ae6"><path d="M 57.574219 111.8125 L 166.3125 83.175781 L 192.847656 183.941406 L 84.109375 212.574219 Z M 57.574219 111.8125 " clip-rule="nonzero" /></clipPath><clipPath id="13060e26f1"><path d="M 57.574219 111.8125 L 166.3125 83.175781 L 192.847656 183.941406 L 84.109375 212.574219 Z M 57.574219 111.8125 " clip-rule="nonzero" /></clipPath><clipPath id="d7d5897568"><path d="M 150 146 L 157 146 L 157 158 L 150 158 Z M 150 146 " clip-rule="nonzero" /></clipPath><clipPath id="86708bae64"><path d="M 57.574219 111.8125 L 166.3125 83.175781 L 192.847656 183.941406 L 84.109375 212.574219 Z M 57.574219 111.8125 " clip-rule="nonzero" /></clipPath><clipPath id="fd880f37f6"><path d="M 57.574219 111.8125 L 166.3125 83.175781 L 192.847656 183.941406 L 84.109375 212.574219 Z M 57.574219 111.8125 " clip-rule="nonzero" /></clipPath><clipPath id="a0726e5f9b"><path d="M 57.574219 111.8125 L 166.3125 83.175781 L 192.847656 183.941406 L 84.109375 212.574219 Z M 57.574219 111.8125 " clip-rule="nonzero" /></clipPath><clipPath id="47717f368b"><path d="M 154 156 L 158 156 L 158 162 L 154 162 Z M 154 156 " clip-rule="nonzero" /></clipPath><clipPath id="2aa59861dd"><path d="M 57.574219 111.8125 L 166.3125 83.175781 L 192.847656 183.941406 L 84.109375 212.574219 Z M 57.574219 111.8125 " clip-rule="nonzero" /></clipPath><clipPath id="cdd4f99e6b"><path d="M 57.574219 111.8125 L 166.3125 83.175781 L 192.847656 183.941406 L 84.109375 212.574219 Z M 57.574219 111.8125 " clip-rule="nonzero" /></clipPath><clipPath id="68172dd6e1"><path d="M 57.574219 111.8125 L 166.3125 83.175781 L 192.847656 183.941406 L 84.109375 212.574219 Z M 57.574219 111.8125 " clip-rule="nonzero" /></clipPath><clipPath id="66ecdaecc4"><path d="M 143 126 L 155 126 L 155 139 L 143 139 Z M 143 126 " clip-rule="nonzero" /></clipPath><clipPath id="f15569ad20"><path d="M 57.574219 111.8125 L 166.3125 83.175781 L 192.847656 183.941406 L 84.109375 212.574219 Z M 57.574219 111.8125 " clip-rule="nonzero" /></clipPath><clipPath id="e0461d17d7"><path d="M 57.574219 111.8125 L 166.3125 83.175781 L 192.847656 183.941406 L 84.109375 212.574219 Z M 57.574219 111.8125 " clip-rule="nonzero" /></clipPath><clipPath id="2f07de26b7"><path d="M 57.574219 111.8125 L 166.3125 83.175781 L 192.847656 183.941406 L 84.109375 212.574219 Z M 57.574219 111.8125 " clip-rule="nonzero" /></clipPath><clipPath id="63efd8d931"><path d="M 144 127 L 157 127 L 157 142 L 144 142 Z M 144 127 " clip-rule="nonzero" /></clipPath><clipPath id="61ec83ab12"><path d="M 57.574219 111.8125 L 166.3125 83.175781 L 192.847656 183.941406 L 84.109375 212.574219 Z M 57.574219 111.8125 " clip-rule="nonzero" /></clipPath><clipPath id="6bbd82d79c"><path d="M 57.574219 111.8125 L 166.3125 83.175781 L 192.847656 183.941406 L 84.109375 212.574219 Z M 57.574219 111.8125 " clip-rule="nonzero" /></clipPath><clipPath id="0e3c8ff547"><path d="M 57.574219 111.8125 L 166.3125 83.175781 L 192.847656 183.941406 L 84.109375 212.574219 Z M 57.574219 111.8125 " clip-rule="nonzero" /></clipPath><clipPath id="471d6e4a92"><path d="M 146 133 L 155 133 L 155 143 L 146 143 Z M 146 133 " clip-rule="nonzero" /></clipPath><clipPath id="55f2dbc3bf"><path d="M 57.574219 111.8125 L 166.3125 83.175781 L 192.847656 183.941406 L 84.109375 212.574219 Z M 57.574219 111.8125 " clip-rule="nonzero" /></clipPath><clipPath id="21c41e2d88"><path d="M 57.574219 111.8125 L 166.3125 83.175781 L 192.847656 183.941406 L 84.109375 212.574219 Z M 57.574219 111.8125 " clip-rule="nonzero" /></clipPath><clipPath id="38d46f2e40"><path d="M 57.574219 111.8125 L 166.3125 83.175781 L 192.847656 183.941406 L 84.109375 212.574219 Z M 57.574219 111.8125 " clip-rule="nonzero" /></clipPath><clipPath id="f84f3e06d9"><path d="M 146 134 L 152 134 L 152 141 L 146 141 Z M 146 134 " clip-rule="nonzero" /></clipPath><clipPath id="e5ea66b577"><path d="M 57.574219 111.8125 L 166.3125 83.175781 L 192.847656 183.941406 L 84.109375 212.574219 Z M 57.574219 111.8125 " clip-rule="nonzero" /></clipPath><clipPath id="244eaa79cc"><path d="M 57.574219 111.8125 L 166.3125 83.175781 L 192.847656 183.941406 L 84.109375 212.574219 Z M 57.574219 111.8125 " clip-rule="nonzero" /></clipPath><clipPath id="1e28a4a0f1"><path d="M 57.574219 111.8125 L 166.3125 83.175781 L 192.847656 183.941406 L 84.109375 212.574219 Z M 57.574219 111.8125 " clip-rule="nonzero" /></clipPath><clipPath id="70d03bfb93"><path d="M 138 128 L 149 128 L 149 138 L 138 138 Z M 138 128 " clip-rule="nonzero" /></clipPath><clipPath id="96ddeee1a6"><path d="M 57.574219 111.8125 L 166.3125 83.175781 L 192.847656 183.941406 L 84.109375 212.574219 Z M 57.574219 111.8125 " clip-rule="nonzero" /></clipPath><clipPath id="4d02c42b03"><path d="M 57.574219 111.8125 L 166.3125 83.175781 L 192.847656 183.941406 L 84.109375 212.574219 Z M 57.574219 111.8125 " clip-rule="nonzero" /></clipPath><clipPath id="d45fa40a5d"><path d="M 57.574219 111.8125 L 166.3125 83.175781 L 192.847656 183.941406 L 84.109375 212.574219 Z M 57.574219 111.8125 " clip-rule="nonzero" /></clipPath><clipPath id="7a88cdfe82"><path d="M 149 126 L 156 126 L 156 134 L 149 134 Z M 149 126 " clip-rule="nonzero" /></clipPath><clipPath id="64282553f4"><path d="M 57.574219 111.8125 L 166.3125 83.175781 L 192.847656 183.941406 L 84.109375 212.574219 Z M 57.574219 111.8125 " clip-rule="nonzero" /></clipPath><clipPath id="60dba30a40"><path d="M 57.574219 111.8125 L 166.3125 83.175781 L 192.847656 183.941406 L 84.109375 212.574219 Z M 57.574219 111.8125 " clip-rule="nonzero" /></clipPath><clipPath id="df49f6b36a"><path d="M 57.574219 111.8125 L 166.3125 83.175781 L 192.847656 183.941406 L 84.109375 212.574219 Z M 57.574219 111.8125 " clip-rule="nonzero" /></clipPath><clipPath id="78bf49ff51"><path d="M 146 125 L 153 125 L 153 133 L 146 133 Z M 146 125 " clip-rule="nonzero" /></clipPath><clipPath id="8d16645fa9"><path d="M 57.574219 111.8125 L 166.3125 83.175781 L 192.847656 183.941406 L 84.109375 212.574219 Z M 57.574219 111.8125 " clip-rule="nonzero" /></clipPath><clipPath id="22c25e796d"><path d="M 57.574219 111.8125 L 166.3125 83.175781 L 192.847656 183.941406 L 84.109375 212.574219 Z M 57.574219 111.8125 " clip-rule="nonzero" /></clipPath><clipPath id="bb6b552790"><path d="M 57.574219 111.8125 L 166.3125 83.175781 L 192.847656 183.941406 L 84.109375 212.574219 Z M 57.574219 111.8125 " clip-rule="nonzero" /></clipPath><clipPath id="b5ad0b72f7"><path d="M 75 149 L 121 149 L 121 208 L 75 208 Z M 75 149 " clip-rule="nonzero" /></clipPath><clipPath id="4f97160b73"><path d="M 57.574219 111.8125 L 166.3125 83.175781 L 192.847656 183.941406 L 84.109375 212.574219 Z M 57.574219 111.8125 " clip-rule="nonzero" /></clipPath><clipPath id="a336aa90a6"><path d="M 57.574219 111.8125 L 166.3125 83.175781 L 192.847656 183.941406 L 84.109375 212.574219 Z M 57.574219 111.8125 " clip-rule="nonzero" /></clipPath><clipPath id="853d1ea975"><path d="M 57.574219 111.8125 L 166.3125 83.175781 L 192.847656 183.941406 L 84.109375 212.574219 Z M 57.574219 111.8125 " clip-rule="nonzero" /></clipPath><clipPath id="4df3b401ac"><path d="M 79 153 L 118 153 L 118 203 L 79 203 Z M 79 153 " clip-rule="nonzero" /></clipPath><clipPath id="94a6efb44f"><path d="M 57.574219 111.8125 L 166.3125 83.175781 L 192.847656 183.941406 L 84.109375 212.574219 Z M 57.574219 111.8125 " clip-rule="nonzero" /></clipPath><clipPath id="4e6e0f69da"><path d="M 57.574219 111.8125 L 166.3125 83.175781 L 192.847656 183.941406 L 84.109375 212.574219 Z M 57.574219 111.8125 " clip-rule="nonzero" /></clipPath><clipPath id="6a8371a574"><path d="M 57.574219 111.8125 L 166.3125 83.175781 L 192.847656 183.941406 L 84.109375 212.574219 Z M 57.574219 111.8125 " clip-rule="nonzero" /></clipPath><clipPath id="97d8e957b4"><path d="M 89 164 L 97 164 L 97 173 L 89 173 Z M 89 164 " clip-rule="nonzero" /></clipPath><clipPath id="d4a8dd768c"><path d="M 57.574219 111.8125 L 166.3125 83.175781 L 192.847656 183.941406 L 84.109375 212.574219 Z M 57.574219 111.8125 " clip-rule="nonzero" /></clipPath><clipPath id="f213c175b8"><path d="M 57.574219 111.8125 L 166.3125 83.175781 L 192.847656 183.941406 L 84.109375 212.574219 Z M 57.574219 111.8125 " clip-rule="nonzero" /></clipPath><clipPath id="bf66797369"><path d="M 57.574219 111.8125 L 166.3125 83.175781 L 192.847656 183.941406 L 84.109375 212.574219 Z M 57.574219 111.8125 " clip-rule="nonzero" /></clipPath><clipPath id="3bfbb33eff"><path d="M 88 168 L 106 168 L 106 192 L 88 192 Z M 88 168 " clip-rule="nonzero" /></clipPath><clipPath id="2a0f409101"><path d="M 57.574219 111.8125 L 166.3125 83.175781 L 192.847656 183.941406 L 84.109375 212.574219 Z M 57.574219 111.8125 " clip-rule="nonzero" /></clipPath><clipPath id="dad5578247"><path d="M 57.574219 111.8125 L 166.3125 83.175781 L 192.847656 183.941406 L 84.109375 212.574219 Z M 57.574219 111.8125 " clip-rule="nonzero" /></clipPath><clipPath id="47307a2ec7"><path d="M 57.574219 111.8125 L 166.3125 83.175781 L 192.847656 183.941406 L 84.109375 212.574219 Z M 57.574219 111.8125 " clip-rule="nonzero" /></clipPath><clipPath id="d59172b826"><path d="M 85 172 L 106 172 L 106 181 L 85 181 Z M 85 172 " clip-rule="nonzero" /></clipPath><clipPath id="6962931e89"><path d="M 57.574219 111.8125 L 166.3125 83.175781 L 192.847656 183.941406 L 84.109375 212.574219 Z M 57.574219 111.8125 " clip-rule="nonzero" /></clipPath><clipPath id="f7cff98dd6"><path d="M 57.574219 111.8125 L 166.3125 83.175781 L 192.847656 183.941406 L 84.109375 212.574219 Z M 57.574219 111.8125 " clip-rule="nonzero" /></clipPath><clipPath id="9e7790f2f7"><path d="M 57.574219 111.8125 L 166.3125 83.175781 L 192.847656 183.941406 L 84.109375 212.574219 Z M 57.574219 111.8125 " clip-rule="nonzero" /></clipPath><clipPath id="13857c554e"><path d="M 92 163 L 105 163 L 105 186 L 92 186 Z M 92 163 " clip-rule="nonzero" /></clipPath><clipPath id="8325dc9859"><path d="M 57.574219 111.8125 L 166.3125 83.175781 L 192.847656 183.941406 L 84.109375 212.574219 Z M 57.574219 111.8125 " clip-rule="nonzero" /></clipPath><clipPath id="7c5aa69b7b"><path d="M 57.574219 111.8125 L 166.3125 83.175781 L 192.847656 183.941406 L 84.109375 212.574219 Z M 57.574219 111.8125 " clip-rule="nonzero" /></clipPath><clipPath id="986ef13066"><path d="M 57.574219 111.8125 L 166.3125 83.175781 L 192.847656 183.941406 L 84.109375 212.574219 Z M 57.574219 111.8125 " clip-rule="nonzero" /></clipPath><clipPath id="a6eb180635"><path d="M 663.980469 298.859375 L 742.691406 298.859375 L 742.691406 427.796875 L 663.980469 427.796875 Z M 663.980469 298.859375 " clip-rule="nonzero" /></clipPath><clipPath id="725bfc6152"><path d="M 6 1.011719 L 79.691406 1.011719 L 79.691406 129.796875 L 6 129.796875 Z M 6 1.011719 " clip-rule="nonzero" /></clipPath><clipPath id="f88f44f3c7"><rect x="0" width="80" y="0" height="130" /></clipPath></defs><g clip-path="url(#90631f3033)" /><g clip-path="url(#70478082bb)"><g transform="matrix(0.533611, 0, 0, 0.532612, -0.000000000000170447, 0.140508)" /></g><g clip-path="url(#119c185dcd)"><g clip-path="url(#2b46dd9f32)"><g clip-path="url(#39b55f23cb)"><g clip-path="url(#a381ffc346)"><path fill="#f6e4b5" d="M 140.117188 90.101562 L 132.65625 98.925781 L 136.953125 123.214844 L 127.542969 136.039062 L 128.523438 141.082031 L 143.289062 145.660156 L 151.128906 166.898438 L 158.582031 176.726562 L 165.78125 174.90625 L 160.707031 143.042969 L 174.414062 131.738281 L 176.296875 121.09375 L 157.394531 122.71875 Z M 140.117188 90.101562 " fill-opacity="1" fill-rule="nonzero" /></g></g></g></g><g clip-path="url(#803810dc6f)"><g clip-path="url(#7fa10088ec)"><g clip-path="url(#c0d0101219)"><g clip-path="url(#85e7d0245f)"><path stroke-linecap="round" transform="matrix(0.0735202, -0.0193614, 0.0298122, 0.113205, -23.561963, -31.599963)" fill="none" stroke-linejoin="round" d="M 1658.218658 1444.753395 C 1659.289091 1451.285583 1659.5795 1527.352077 1661.653544 1536.126276 C 1708.09427 1734.887463 1769.970767 1719.349097 1921.436823 1735.627089 C 1790.331467 1742.120261 1765.405619 1735.062213 1700.235123 1813.493831 C 1669.920583 1849.992454 1651.352558 2042.535079 1639.634367 2069.861063 C 1641.078624 1971.696823 1601.819371 1819.953407 1566.539828 1794.665185 C 1521.659264 1762.524492 1472.944392 1732.108935 1407.636594 1738.813502 C 1619.060398 1717.555166 1625.113537 1539.366016 1658.218658 1444.753395 Z M 1658.218658 1444.753395 " stroke="#41362b" stroke-width="14.28" stroke-opacity="1" stroke-miterlimit="1.163" /></g></g></g></g><g clip-path="url(#800a2e8c48)"><g clip-path="url(#e6222e0d4d)"><g clip-path="url(#670c21ddc3)"><g clip-path="url(#d0ac78adda)"><path stroke-linecap="round" transform="matrix(0.135956, -0.0358036, 0.0358559, 0.136154, 50.650174, 88.790847)" fill="none" stroke-linejoin="round" d="M 602.806169 291.107918 C 595.746655 330.077279 587.383925 349.366934 572.800397 383.20186 " stroke="#41362b" stroke-width="8.65" stroke-opacity="1" stroke-miterlimit="1.163" /></g></g></g></g><g clip-path="url(#1840ec2794)"><g clip-path="url(#8a7baa84c3)"><g clip-path="url(#640424c2de)"><g clip-path="url(#3cba9b9948)"><path stroke-linecap="round" transform="matrix(0.135956, -0.0358036, 0.0358559, 0.136154, 50.650174, 88.790847)" fill="none" stroke-linejoin="round" d="M 607.041049 334.424412 C 599.443856 343.185345 599.572557 343.133119 591.923061 351.765539 " stroke="#41362b" stroke-width="8.65" stroke-opacity="1" stroke-miterlimit="1.163" /></g></g></g></g><g clip-path="url(#f1189073e1)"><g clip-path="url(#1fe9ecfefc)"><g clip-path="url(#19ba9dc5bb)"><g clip-path="url(#af675339a0)" /></g></g></g><g clip-path="url(#d9e2fdb726)"><g clip-path="url(#b37e541b37)"><g clip-path="url(#cd662a4f21)"><g clip-path="url(#386c38e828)" /></g></g></g><g clip-path="url(#0f1e45887b)"><g clip-path="url(#fb09de4c5e)"><g clip-path="url(#cbb8e86ae6)"><g clip-path="url(#13060e26f1)"><path stroke-linecap="round" transform="matrix(0.135956, -0.0358036, 0.0358559, 0.136154, 50.650174, 88.790847)" fill="none" stroke-linejoin="round" d="M 670.28914 471.43928 C 634.422288 495.660873 618.810839 504.523471 579.221586 538.065889 C 601.570904 525.552712 601.177822 525.191136 623.296704 512.244393 C 626.453511 510.406357 642.998474 500.727712 662.728449 489.648796 C 617.719993 523.258036 608.915542 529.40631 581.275218 552.721361 C 607.717144 540.595833 607.464046 540.357138 633.098776 526.498781 C 608.54173 547.92777 608.271708 547.426415 584.028573 569.081401 C 592.235599 566.505715 592.63279 567.614309 618.691483 555.416694 C 604.460443 571.355732 604.761637 571.521005 589.552149 586.485497 C 592.358135 585.215076 592.837366 586.230484 614.271627 574.136547 " stroke="#41362b" stroke-width="8.65" stroke-opacity="1" stroke-miterlimit="1.163" /></g></g></g></g><g clip-path="url(#d7d5897568)"><g clip-path="url(#86708bae64)"><g clip-path="url(#fd880f37f6)"><g clip-path="url(#a0726e5f9b)" /></g></g></g><g clip-path="url(#47717f368b)"><g clip-path="url(#2aa59861dd)"><g clip-path="url(#cdd4f99e6b)"><g clip-path="url(#68172dd6e1)"><path stroke-linecap="round" transform="matrix(0.135956, -0.0358036, 0.0358559, 0.136154, 50.650174, 88.790847)" fill="none" stroke-linejoin="round" d="M 603.892931 661.206779 C 602.809393 662.700623 592.288019 677.319974 590.299174 680.067631 C 592.047056 680.412501 593.535249 677.82009 595.283132 678.16496 C 596.049599 678.309134 595.442598 688.018847 595.391536 688.866117 " stroke="#41362b" stroke-width="8.65" stroke-opacity="1" stroke-miterlimit="1.163" /></g></g></g></g><g clip-path="url(#66ecdaecc4)"><g clip-path="url(#f15569ad20)"><g clip-path="url(#e0461d17d7)"><g clip-path="url(#2f07de26b7)"><path stroke-linecap="round" transform="matrix(0.135956, -0.0358036, 0.0358559, 0.136154, 50.650174, 88.790847)" fill="none" stroke-linejoin="round" d="M 642.177338 450.132281 C 617.290233 466.71195 578.384379 490.363915 554.242805 505.532995 " stroke="#41362b" stroke-width="8.65" stroke-opacity="1" stroke-miterlimit="1.163" /></g></g></g></g><g clip-path="url(#63efd8d931)"><g clip-path="url(#61ec83ab12)"><g clip-path="url(#6bbd82d79c)"><g clip-path="url(#0e3c8ff547)"><path stroke-linecap="round" transform="matrix(0.135956, -0.0358036, 0.0358559, 0.136154, 50.650174, 88.790847)" fill="none" stroke-linejoin="round" d="M 649.629915 459.350589 C 612.152858 488.370322 589.746837 501.643217 553.250438 527.162448 " stroke="#41362b" stroke-width="8.65" stroke-opacity="1" stroke-miterlimit="1.163" /></g></g></g></g><g clip-path="url(#471d6e4a92)"><g clip-path="url(#55f2dbc3bf)"><g clip-path="url(#21c41e2d88)"><g clip-path="url(#38d46f2e40)"><path stroke-linecap="round" transform="matrix(0.135956, -0.0358036, 0.0358559, 0.136154, 50.650174, 88.790847)" fill="none" stroke-linejoin="round" d="M 629.018089 498.830151 C 598.837031 518.923678 598.524652 518.038216 567.949175 537.339467 " stroke="#41362b" stroke-width="8.65" stroke-opacity="1" stroke-miterlimit="1.163" /></g></g></g></g><g clip-path="url(#f84f3e06d9)"><g clip-path="url(#e5ea66b577)"><g clip-path="url(#244eaa79cc)"><g clip-path="url(#1e28a4a0f1)"><path stroke-linecap="round" transform="matrix(0.135956, -0.0358036, 0.0358559, 0.136154, 50.650174, 88.790847)" fill="none" stroke-linejoin="round" d="M 606.171201 502.117781 C 587.73502 514.282856 587.911816 514.157207 569.636845 526.364674 " stroke="#41362b" stroke-width="8.65" stroke-opacity="1" stroke-miterlimit="1.163" /></g></g></g></g><g clip-path="url(#70d03bfb93)"><g clip-path="url(#96ddeee1a6)"><g clip-path="url(#4d02c42b03)"><g clip-path="url(#d45fa40a5d)"><path stroke-linecap="round" transform="matrix(0.135956, -0.0358036, 0.0358559, 0.136154, 50.650174, 88.790847)" fill="none" stroke-linejoin="round" d="M 522.362619 489.69028 C 557.640459 469.445147 556.977356 468.582217 593.232113 449.971093 " stroke="#41362b" stroke-width="8.65" stroke-opacity="1" stroke-miterlimit="1.163" /></g></g></g></g><g clip-path="url(#7a88cdfe82)"><g clip-path="url(#64282553f4)"><g clip-path="url(#60dba30a40)"><g clip-path="url(#df49f6b36a)"><path stroke-linecap="round" transform="matrix(0.135956, -0.0358036, 0.0358559, 0.136154, 50.650174, 88.790847)" fill="none" stroke-linejoin="round" d="M 646.307903 451.792269 C 625.561793 467.050916 625.711721 466.918202 604.135656 481.183972 " stroke="#41362b" stroke-width="8.65" stroke-opacity="1" stroke-miterlimit="1.163" /></g></g></g></g><g clip-path="url(#78bf49ff51)"><g clip-path="url(#8d16645fa9)"><g clip-path="url(#22c25e796d)"><g clip-path="url(#bb6b552790)" /></g></g></g><g clip-path="url(#b5ad0b72f7)"><g clip-path="url(#4f97160b73)"><g clip-path="url(#a336aa90a6)"><g clip-path="url(#853d1ea975)"><path fill="#f6e4b5" d="M 88.945312 150.804688 L 95.761719 149.835938 L 98.429688 158.101562 L 102.042969 166.945312 L 118.265625 167.707031 L 120.269531 176.101562 L 106.394531 181.644531 L 107.199219 206.460938 L 101.699219 207.804688 L 93.585938 189.363281 L 79.433594 186.441406 L 75.285156 179.09375 L 85.367188 174.886719 Z M 88.945312 150.804688 " fill-opacity="1" fill-rule="nonzero" /></g></g></g></g><g clip-path="url(#4df3b401ac)"><g clip-path="url(#94a6efb44f)"><g clip-path="url(#4e6e0f69da)"><g clip-path="url(#6a8371a574)"><path stroke-linecap="round" transform="matrix(0.0693709, -0.0182687, 0.0199855, 0.0758903, -51.697443, 74.809204)" fill="none" stroke-linejoin="round" d="M 1658.255423 1444.732529 C 1659.301815 1451.264046 1659.619624 1527.36519 1661.652266 1536.141543 C 1708.115387 1734.891555 1769.969189 1719.361141 1921.425064 1735.643154 C 1790.327634 1742.122822 1765.448451 1735.052869 1700.275921 1813.507135 C 1669.953198 1849.959192 1651.360006 2042.519452 1639.653045 2069.864087 C 1641.07731 1971.688892 1601.789015 1819.961694 1566.514374 1794.638763 C 1521.651352 1762.529579 1472.974292 1732.127352 1407.582886 1738.827964 C 1619.081456 1717.525204 1625.141499 1539.345555 1658.255423 1444.732529 Z M 1658.255423 1444.732529 " stroke="#41362b" stroke-width="22.370001" stroke-opacity="1" stroke-miterlimit="1.163" /></g></g></g></g><g clip-path="url(#97d8e957b4)"><g clip-path="url(#d4a8dd768c)"><g clip-path="url(#f213c175b8)"><g clip-path="url(#bf66797369)"><path stroke-linecap="round" transform="matrix(0.162222, -0.0427209, 0.0427833, 0.162459, 13.710735, 93.550652)" fill="none" stroke-linejoin="round" d="M 363.398521 536.633355 C 348.971391 547.602851 348.973795 547.411128 334.41276 558.249234 C 333.449054 558.981638 333.534398 558.931947 322.369409 567.393041 " stroke="#41362b" stroke-width="8.65" stroke-opacity="1" stroke-miterlimit="1.163" /></g></g></g></g><g clip-path="url(#3bfbb33eff)"><g clip-path="url(#2a0f409101)"><g clip-path="url(#dad5578247)"><g clip-path="url(#47307a2ec7)" /></g></g></g><g clip-path="url(#d59172b826)"><g clip-path="url(#6962931e89)"><g clip-path="url(#f7cff98dd6)"><g clip-path="url(#9e7790f2f7)"><path stroke-linecap="round" transform="matrix(0.162222, -0.0427209, 0.0427833, 0.162459, 13.710735, 93.550652)" fill="none" stroke-linejoin="round" d="M 289.512694 602.682175 C 294.793358 599.550437 294.787428 599.572922 317.769857 586.020219 C 309.432508 595.994304 309.836628 596.196751 300.934008 605.757701 C 306.840201 604.088856 311.474084 605.692111 347.099983 587.385239 C 333.495196 599.436583 333.023603 598.759548 318.38122 613.832135 C 324.110715 612.741981 325.01447 615.889018 371.338152 597.101182 C 379.370892 593.851584 379.217995 593.883511 387.23054 590.893091 C 373.482635 601.29582 373.339274 601.017676 360.497854 612.548424 C 366.332887 611.1494 366.807843 612.909321 400.519703 600.855624 " stroke="#41362b" stroke-width="8.65" stroke-opacity="1" stroke-miterlimit="1.163" /></g></g></g></g><g clip-path="url(#13857c554e)"><g clip-path="url(#8325dc9859)"><g clip-path="url(#7c5aa69b7b)"><g clip-path="url(#986ef13066)"><path stroke-linecap="round" transform="matrix(0.162222, -0.0427209, 0.0427833, 0.162459, 13.710735, 93.550652)" fill="none" stroke-linejoin="round" d="M 348.966224 530.000935 C 351.69835 528.771782 354.407957 527.536708 357.146013 526.28507 C 353.291094 536.428004 353.819664 536.615088 346.848533 548.439196 C 344.061266 553.164342 344.242612 553.115852 341.567934 557.870605 C 347.846112 557.165179 347.944356 557.888304 363.698907 553.663702 C 357.864572 564.4643 358.301868 564.72356 346.19696 580.126789 C 354.126403 577.907984 354.353824 578.689122 370.0958 571.86441 C 357.740156 584.292322 357.741358 584.19646 350.251761 592.325648 C 359.655365 591.456273 359.881503 592.790096 381.619337 586.604344 C 356.044212 603.779222 355.630717 602.973198 330.331656 620.653472 C 335.955693 619.415365 338.21309 621.812314 370.626287 607.926359 C 384.476514 601.97472 384.412486 602.126194 398.660821 596.856312 C 386.448863 607.735073 386.839921 608.078352 373.715548 617.851579 C 359.866914 628.179731 359.902494 628.044821 346.793263 639.312788 C 365.488693 632.976194 365.265918 632.725256 383.23036 624.777814 C 373.856066 634.118553 364.481772 643.459291 355.107477 652.80003 " stroke="#41362b" stroke-width="8.65" stroke-opacity="1" stroke-miterlimit="1.163" /></g></g></g></g><g clip-path="url(#a6eb180635)"><g transform="matrix(1, 0, 0, 1, 663, 298)"><g clip-path="url(#f88f44f3c7)"><g clip-path="url(#725bfc6152)"><path fill="#ede3d8" d="M 57.148438 3.039062 L 52.324219 10.335938 L 51.449219 18.542969 L 53.945312 25.425781 L 55.894531 34.089844 L 60.789062 41.726562 L 63.601562 47.085938 L 56.835938 44.660156 L 50.269531 46.046875 L 46.828125 52.726562 L 48.722656 59.226562 L 52.652344 66.761719 L 58.058594 67.78125 L 52.945312 75.679688 L 49.03125 79.519531 L 41.445312 81.011719 L 34.421875 78.445312 L 30.203125 71.167969 L 20.320312 69.363281 L 16.5 75.457031 L 14.078125 84.085938 L 13.605469 91.09375 L 10.039062 98.558594 L 10.929688 106.164062 L 8.183594 112.808594 L 6.417969 119.488281 L 8.402344 128.765625 L 14.1875 129.898438 L 20.136719 126.511719 L 24.796875 123.398438 L 30.257812 122.34375 L 36.585938 117.902344 L 42.613281 112.515625 L 48.933594 111.582031 L 55.964844 109.128906 L 55.964844 101.3125 L 51.503906 96.078125 L 51.78125 91.929688 L 56.675781 87.074219 L 64.460938 83.066406 L 67.320312 75.203125 L 71.886719 67.269531 L 72.265625 60.753906 L 76.652344 55.496094 L 79.691406 51.925781 L 76.34375 41.535156 L 71.160156 35.65625 L 68.703125 28.191406 L 64.171875 22.332031 L 63.570312 14.308594 L 65.632812 5.925781 L 61.667969 1.058594 Z M 57.148438 3.039062 " fill-opacity="1" fill-rule="nonzero" /></g><path fill="#000000" d="M 64.074219 59.695312 C 63.699219 60.007812 63.328125 60.28125 62.960938 60.515625 C 62.445312 60.847656 62.292969 61.535156 62.625 62.050781 C 62.953125 62.566406 63.640625 62.71875 64.15625 62.386719 C 64.703125 62.035156 65.261719 61.617188 65.824219 61.125 C 66.308594 60.902344 66.578125 60.351562 66.433594 59.820312 C 66.222656 59.050781 65.945312 58.3125 65.613281 57.605469 C 65.351562 57.054688 64.691406 56.816406 64.136719 57.078125 C 63.585938 57.339844 63.347656 58.003906 63.609375 58.554688 C 63.785156 58.925781 63.941406 59.304688 64.074219 59.695312 Z M 60.699219 8.804688 C 61.023438 8.285156 60.867188 7.601562 60.347656 7.277344 C 59.828125 6.953125 59.144531 7.109375 58.820312 7.632812 C 58.617188 7.957031 58.425781 8.28125 58.242188 8.605469 C 57.941406 9.136719 58.128906 9.816406 58.660156 10.117188 C 59.195312 10.417969 59.871094 10.230469 60.171875 9.695312 C 60.339844 9.402344 60.515625 9.105469 60.699219 8.804688 Z M 58.703125 12.902344 C 58.90625 12.324219 58.601562 11.691406 58.023438 11.488281 C 57.445312 11.285156 56.8125 11.589844 56.609375 12.167969 C 56.347656 12.917969 56.136719 13.652344 55.980469 14.382812 C 55.847656 14.980469 56.226562 15.574219 56.824219 15.703125 C 57.421875 15.835938 58.015625 15.453125 58.144531 14.855469 C 58.285156 14.214844 58.46875 13.5625 58.703125 12.902344 Z M 57.796875 18.304688 C 57.789062 17.691406 57.285156 17.199219 56.671875 17.210938 C 56.058594 17.21875 55.570312 17.726562 55.582031 18.339844 C 55.59375 19.117188 55.65625 19.886719 55.769531 20.644531 C 55.859375 21.25 56.421875 21.667969 57.027344 21.578125 C 57.632812 21.488281 58.050781 20.925781 57.960938 20.316406 C 57.867188 19.65625 57.808594 18.984375 57.796875 18.304688 Z M 58.820312 23.722656 C 58.617188 23.144531 57.984375 22.839844 57.40625 23.042969 C 56.828125 23.246094 56.527344 23.882812 56.730469 24.460938 C 56.980469 25.167969 57.261719 25.867188 57.578125 26.558594 C 57.828125 27.117188 58.488281 27.363281 59.042969 27.113281 C 59.601562 26.859375 59.847656 26.199219 59.59375 25.640625 C 59.308594 25.007812 59.046875 24.371094 58.820312 23.722656 Z M 61.269531 28.835938 C 60.960938 28.308594 60.28125 28.132812 59.753906 28.445312 C 59.226562 28.753906 59.050781 29.4375 59.359375 29.964844 C 59.734375 30.597656 60.121094 31.222656 60.523438 31.847656 C 60.855469 32.359375 61.539062 32.511719 62.054688 32.179688 C 62.570312 31.84375 62.71875 31.15625 62.386719 30.644531 C 62.003906 30.046875 61.628906 29.445312 61.269531 28.835938 Z M 64.445312 33.703125 C 64.097656 33.199219 63.40625 33.074219 62.902344 33.425781 C 62.402344 33.773438 62.277344 34.464844 62.625 34.96875 C 63.039062 35.566406 63.453125 36.160156 63.863281 36.75 C 64.214844 37.25 64.90625 37.375 65.410156 37.023438 C 65.910156 36.675781 66.035156 35.980469 65.683594 35.476562 C 65.273438 34.890625 64.859375 34.296875 64.445312 33.703125 Z M 67.792969 38.59375 C 67.460938 38.082031 66.773438 37.933594 66.261719 38.269531 C 65.75 38.601562 65.601562 39.289062 65.933594 39.804688 C 66.324219 40.40625 66.699219 41.003906 67.050781 41.605469 C 67.359375 42.132812 68.039062 42.308594 68.566406 42 C 69.09375 41.6875 69.269531 41.007812 68.960938 40.480469 C 68.59375 39.851562 68.203125 39.222656 67.792969 38.59375 Z M 70.710938 43.9375 C 70.476562 43.371094 69.828125 43.101562 69.265625 43.339844 C 68.699219 43.574219 68.429688 44.222656 68.664062 44.789062 C 68.929688 45.425781 69.152344 46.0625 69.328125 46.703125 C 69.488281 47.296875 70.097656 47.644531 70.6875 47.484375 C 71.277344 47.320312 71.625 46.710938 71.464844 46.121094 C 71.265625 45.390625 71.011719 44.664062 70.710938 43.9375 Z M 71.949219 50.144531 C 71.976562 49.53125 71.5 49.015625 70.890625 48.988281 C 70.277344 48.964844 69.761719 49.441406 69.734375 50.054688 C 69.710938 50.6875 69.621094 51.328125 69.457031 51.972656 C 69.308594 52.566406 69.671875 53.171875 70.265625 53.320312 C 70.859375 53.46875 71.460938 53.105469 71.609375 52.511719 C 71.808594 51.714844 71.917969 50.925781 71.949219 50.144531 Z M 70.023438 56.234375 C 70.339844 55.710938 70.175781 55.027344 69.652344 54.707031 C 69.128906 54.390625 68.449219 54.554688 68.128906 55.078125 C 67.796875 55.625 67.410156 56.175781 66.964844 56.734375 C 66.582031 57.210938 66.660156 57.910156 67.136719 58.292969 C 67.613281 58.679688 68.3125 58.601562 68.695312 58.121094 C 69.203125 57.488281 69.644531 56.859375 70.023438 56.234375 Z M 60.257812 63.882812 C 60.863281 63.804688 61.292969 63.246094 61.210938 62.636719 C 61.132812 62.03125 60.574219 61.601562 59.96875 61.683594 C 59.339844 61.765625 58.742188 61.742188 58.179688 61.625 C 57.582031 61.503906 56.996094 61.890625 56.875 62.492188 C 56.75 63.09375 57.140625 63.679688 57.738281 63.800781 C 58.53125 63.964844 59.375 64 60.257812 63.882812 Z M 53.949219 61.804688 C 54.398438 62.226562 55.097656 62.203125 55.515625 61.757812 C 55.9375 61.308594 55.914062 60.605469 55.46875 60.1875 C 55.015625 59.761719 54.628906 59.269531 54.320312 58.742188 C 54.007812 58.214844 53.328125 58.039062 52.800781 58.351562 C 52.273438 58.660156 52.097656 59.34375 52.410156 59.871094 C 52.824219 60.578125 53.34375 61.234375 53.949219 61.804688 Z M 51.269531 55.738281 C 51.257812 56.351562 51.746094 56.859375 52.355469 56.871094 C 52.96875 56.882812 53.472656 56.394531 53.484375 55.78125 C 53.496094 55.214844 53.617188 54.664062 53.867188 54.167969 C 54.144531 53.621094 53.921875 52.953125 53.378906 52.675781 C 52.832031 52.402344 52.164062 52.621094 51.886719 53.167969 C 51.488281 53.957031 51.289062 54.832031 51.269531 55.738281 Z M 55.5 50.316406 C 54.894531 50.421875 54.492188 51 54.597656 51.605469 C 54.707031 52.207031 55.28125 52.609375 55.882812 52.503906 C 56.367188 52.417969 56.914062 52.492188 57.492188 52.675781 C 58.074219 52.859375 58.699219 52.53125 58.882812 51.949219 C 59.066406 51.363281 58.742188 50.738281 58.15625 50.554688 C 57.203125 50.257812 56.296875 50.175781 55.5 50.316406 Z M 61.746094 52.601562 C 61.273438 52.210938 60.574219 52.273438 60.183594 52.746094 C 59.792969 53.21875 59.855469 53.917969 60.328125 54.308594 C 60.820312 54.71875 61.296875 55.183594 61.742188 55.699219 C 62.144531 56.164062 62.84375 56.210938 63.304688 55.808594 C 63.769531 55.410156 63.816406 54.707031 63.417969 54.242188 C 62.886719 53.636719 62.324219 53.085938 61.746094 52.601562 Z M 66.925781 63.796875 C 66.925781 63.183594 66.425781 62.6875 65.8125 62.691406 C 65.199219 62.695312 64.707031 63.195312 64.710938 63.808594 C 64.714844 64.503906 64.671875 65.175781 64.59375 65.828125 C 64.515625 66.433594 64.945312 66.992188 65.554688 67.066406 C 66.160156 67.144531 66.714844 66.710938 66.792969 66.105469 C 66.886719 65.359375 66.933594 64.59375 66.925781 63.796875 Z M 65.84375 69.964844 C 66.054688 69.390625 65.761719 68.75 65.191406 68.539062 C 64.617188 68.324219 63.976562 68.617188 63.765625 69.191406 C 63.527344 69.832031 63.25 70.449219 62.941406 71.046875 C 62.65625 71.589844 62.867188 72.261719 63.410156 72.542969 C 63.953125 72.828125 64.625 72.613281 64.90625 72.070312 C 65.257812 71.394531 65.570312 70.695312 65.84375 69.964844 Z M 62.789062 75.367188 C 63.164062 74.878906 63.070312 74.183594 62.585938 73.808594 C 62.101562 73.433594 61.40625 73.527344 61.03125 74.011719 C 60.605469 74.566406 60.160156 75.097656 59.699219 75.609375 C 59.292969 76.066406 59.328125 76.769531 59.78125 77.179688 C 60.238281 77.589844 60.9375 77.550781 61.347656 77.097656 C 61.847656 76.542969 62.328125 75.964844 62.789062 75.367188 Z M 58.65625 79.8125 C 59.101562 79.394531 59.128906 78.691406 58.714844 78.242188 C 58.296875 77.792969 57.597656 77.765625 57.148438 78.183594 C 56.613281 78.679688 56.082031 79.15625 55.5625 79.613281 C 55.101562 80.019531 55.054688 80.722656 55.460938 81.179688 C 55.863281 81.640625 56.566406 81.6875 57.023438 81.28125 C 57.5625 80.808594 58.109375 80.320312 58.65625 79.8125 Z M 54.242188 83.730469 C 54.695312 83.320312 54.730469 82.617188 54.316406 82.164062 C 53.90625 81.710938 53.203125 81.675781 52.75 82.089844 C 52.46875 82.347656 52.195312 82.601562 51.9375 82.851562 C 51.496094 83.277344 51.484375 83.980469 51.910156 84.421875 C 52.332031 84.863281 53.035156 84.875 53.476562 84.449219 C 53.71875 84.214844 53.976562 83.976562 54.242188 83.730469 Z M 54.242188 83.730469 " fill-opacity="1" fill-rule="evenodd" /><path fill="#000000" d="M 33.160156 83.722656 C 31.949219 81.796875 29.675781 80.511719 28.347656 78.929688 C 27.132812 77.480469 26.171875 75.53125 25.191406 74.21875 C 24.539062 73.34375 23.273438 74.398438 22.914062 75.132812 C 22.222656 76.535156 21.726562 79.945312 21.058594 82.632812 C 20.238281 85.929688 17.835938 89.070312 17.089844 93.132812 C 16.511719 96.292969 15.949219 100.335938 15.644531 104.042969 C 15.328125 107.871094 14.585938 111.617188 13.792969 114.054688 C 12.804688 117.101562 12.714844 120.789062 11.789062 122.121094 C 11.199219 122.96875 10.289062 126.492188 11.714844 126.472656 C 12.480469 126.460938 17.042969 124.414062 18.402344 123.402344 C 20.25 122.027344 24.933594 118.839844 27.363281 117.390625 C 29.148438 116.332031 29.765625 116.460938 32.988281 114.722656 C 35.804688 113.207031 37.386719 111.339844 40.222656 109.824219 C 43.117188 108.277344 46.515625 106.226562 49.101562 104.804688 C 49.90625 104.363281 50.28125 103.441406 50.066406 102.589844 C 50.011719 102.160156 49.8125 101.746094 49.476562 101.421875 C 48.914062 100.886719 46.488281 98.394531 44.652344 96.871094 C 45.992188 95.132812 46.507812 93.675781 47.355469 92.03125 C 48.230469 90.34375 49.933594 87.890625 49.882812 86.734375 C 49.835938 85.644531 48.140625 85.117188 47.050781 85.105469 C 44.4375 85.082031 42.664062 85.183594 40.484375 84.980469 C 38.203125 84.765625 36.058594 83.769531 33.382812 83.824219 C 33.308594 83.785156 33.234375 83.75 33.160156 83.722656 Z M 24.402344 77.546875 C 25.179688 78.386719 26.414062 80.695312 27.207031 81.566406 C 28.429688 82.910156 29.101562 84.578125 29.960938 86.039062 C 29.238281 87.398438 28.488281 89.039062 27.722656 90.808594 C 26.347656 93.976562 25.257812 97.5 23.855469 100.617188 C 22.796875 102.972656 20.648438 105.722656 19.460938 108.351562 C 18.125 111.304688 17.425781 114.164062 16.476562 116.035156 C 17.039062 113.460938 16.863281 109.972656 17.347656 106.597656 C 17.785156 103.550781 18.886719 100.617188 19.339844 98.195312 C 19.667969 96.445312 19.652344 93.78125 20.097656 91.957031 C 20.707031 89.46875 21.722656 87.371094 22.21875 85.429688 C 22.890625 82.789062 24.042969 79.097656 24.402344 77.546875 Z M 46.535156 102.421875 C 43.242188 104.066406 43.320312 104.429688 41.667969 105.773438 C 41.039062 106.285156 39.160156 107.597656 37.722656 108.273438 C 35.230469 109.445312 32.773438 110.65625 31.566406 111.476562 C 29.515625 112.867188 28.019531 114.261719 25.664062 115.871094 C 23.574219 117.304688 19.550781 119.132812 17.550781 120.417969 C 18.046875 119.765625 21.578125 115.792969 22.203125 115.160156 C 23.902344 113.433594 25.019531 111.816406 26.378906 110.082031 C 28.496094 107.390625 30.625 103.207031 32.332031 100.871094 C 33.597656 99.140625 35.632812 97.425781 36.617188 96.078125 C 37.621094 96.792969 39.164062 96.539062 40.441406 97.304688 C 42.890625 98.765625 45.175781 101.253906 46.535156 102.421875 Z M 42.703125 95.605469 C 41.777344 95.085938 40.660156 94.503906 39.8125 93.515625 C 40.46875 93.160156 40.589844 91.902344 41.25 91.335938 C 41.933594 90.742188 43.152344 90.507812 43.917969 89.96875 C 44.660156 89.445312 45.425781 89.464844 45.578125 89.730469 C 45.703125 89.957031 45.535156 91.300781 44.847656 92.851562 C 44.3125 94.050781 42.949219 94.640625 42.703125 95.605469 Z M 33.507812 87.773438 C 35.183594 87.742188 35.863281 86.898438 37.5625 86.984375 C 39.027344 87.054688 41.035156 87.761719 42.332031 87.796875 C 41.238281 88.34375 40.816406 89.046875 39.957031 89.511719 C 38.804688 90.136719 36.253906 90.96875 35.40625 91.554688 C 35.078125 91.6875 34.78125 91.90625 34.558594 92.210938 C 33.464844 93.695312 32.832031 96.671875 30.859375 99.371094 C 29.640625 101.042969 26.253906 105.449219 23.402344 109.328125 C 21.957031 111.296875 20.1875 113.726562 19.457031 114.714844 C 19.898438 113.832031 21.523438 111.148438 22.664062 108.558594 C 23.683594 106.242188 24.519531 103.578125 25.511719 101.640625 C 27.03125 98.6875 29.214844 95.277344 31.0625 92.105469 C 31.988281 90.515625 32.84375 89.027344 33.507812 87.773438 Z M 33.507812 87.773438 " fill-opacity="1" fill-rule="evenodd" /></g></g></g></svg>